<svg xmlns="http://www.w3.org/2000/svg" viewBox="0 0 1680 388" width="1680" height="388">
<path d="M70 -200V496H194V436H212Q229 465 265.0 487.5Q301 510 368 510Q428 510 479.0 480.5Q530 451 561.0 394.0Q592 337 592 256V240Q592 159 561.0 102.0Q530 45 479.0 15.5Q428 -14 368 -14Q323 -14 292.5 -3.5Q262 7 243.5 23.5Q225 40 214 57H196V-200ZM330 96Q389 96 427.5 133.5Q466 171 466 243V253Q466 325 427.0 362.5Q388 400 330 400Q272 400 233.0 362.5Q194 325 194 253V243Q194 171 233.0 133.5Q272 96 330 96Z" transform="translate(50.00,260.00) scale(0.30000,-0.30000)" fill="#14181F"/>
<path d="M224 -14Q171 -14 129.0 4.5Q87 23 62.5 58.5Q38 94 38 145Q38 196 62.5 230.5Q87 265 130.5 282.5Q174 300 230 300H366V328Q366 363 344.0 385.5Q322 408 274 408Q227 408 204.0 386.5Q181 365 174 331L58 370Q70 408 96.5 439.5Q123 471 167.5 490.5Q212 510 276 510Q374 510 431.0 461.0Q488 412 488 319V134Q488 104 516 104H556V0H472Q435 0 411.0 18.0Q387 36 387 66V67H368Q364 55 350.0 35.5Q336 16 306.0 1.0Q276 -14 224 -14ZM246 88Q299 88 332.5 117.5Q366 147 366 196V206H239Q204 206 184.0 191.0Q164 176 164 149Q164 122 185.0 105.0Q206 88 246 88Z" transform="translate(241.40,260.00) scale(0.30000,-0.30000)" fill="#14181F"/>
<path d="M70 0V496H194V431H212Q224 457 257.0 480.5Q290 504 357 504Q415 504 458.5 477.5Q502 451 526.0 404.5Q550 358 550 296V0H424V286Q424 342 396.5 370.0Q369 398 318 398Q260 398 228.0 359.5Q196 321 196 252V0Z" transform="translate(414.80,260.00) scale(0.30000,-0.30000)" fill="#14181F"/>
<clipPath id="ecw"><path d="M 595.9,187.1 Q 691.4,38.4 786.9,187.1 Q 691.4,335.8 595.9,187.1 Z"/></clipPath>
<path d="M 595.9,187.1 Q 691.4,38.4 786.9,187.1 Q 691.4,335.8 595.9,187.1 Z" fill="#FFFFFF" stroke="#3A4451" stroke-width="11.9"/>
<g clip-path="url(#ecw)">
<circle cx="691.4" cy="187.1" r="46.1" fill="#14181F"/>
<circle cx="691.4" cy="187.1" r="22.3" fill="#8C1C2E"/>
<circle cx="675.0" cy="170.7" r="8.9" fill="#FFFFFF"/>
</g>
<path d="M70 -200V496H194V436H212Q229 465 265.0 487.5Q301 510 368 510Q428 510 479.0 480.5Q530 451 561.0 394.0Q592 337 592 256V240Q592 159 561.0 102.0Q530 45 479.0 15.5Q428 -14 368 -14Q323 -14 292.5 -3.5Q262 7 243.5 23.5Q225 40 214 57H196V-200ZM330 96Q389 96 427.5 133.5Q466 171 466 243V253Q466 325 427.0 362.5Q388 400 330 400Q272 400 233.0 362.5Q194 325 194 253V243Q194 171 233.0 133.5Q272 96 330 96Z" transform="translate(783.20,260.00) scale(0.30000,-0.30000)" fill="#3A4451"/>
<path d="M260 0Q211 0 180.5 30.5Q150 61 150 112V392H26V496H150V650H276V496H412V392H276V134Q276 104 304 104H400V0Z" transform="translate(974.60,260.00) scale(0.30000,-0.30000)" fill="#3A4451"/>
<path d="M70 0V496H196V0ZM133 554Q99 554 75.5 576.0Q52 598 52 634Q52 670 75.5 692.0Q99 714 133 714Q168 714 191.0 692.0Q214 670 214 634Q214 598 191.0 576.0Q168 554 133 554Z" transform="translate(1111.40,260.00) scale(0.30000,-0.30000)" fill="#3A4451"/>
<path d="M150 -14Q109 -14 81.5 12.5Q54 39 54 81Q54 123 81.5 149.5Q109 176 150 176Q190 176 217.0 149.5Q244 123 244 81Q244 39 217.0 12.5Q190 -14 150 -14Z" transform="translate(1191.20,260.00) scale(0.30000,-0.30000)" fill="#8C1C2E"/>
<path d="M303 -14Q231 -14 172.5 16.0Q114 46 80.0 103.0Q46 160 46 241V255Q46 336 80.0 393.0Q114 450 172.5 480.0Q231 510 303 510Q374 510 425.0 485.0Q476 460 507.5 416.5Q539 373 549 318L427 292Q423 322 409.0 346.0Q395 370 369.5 384.0Q344 398 306 398Q268 398 237.5 381.5Q207 365 189.5 332.5Q172 300 172 253V243Q172 196 189.5 163.5Q207 131 237.5 114.5Q268 98 306 98Q363 98 392.5 127.5Q422 157 430 205L552 176Q539 123 507.5 79.5Q476 36 425.0 11.0Q374 -14 303 -14Z" transform="translate(1280.60,260.00) scale(0.30000,-0.30000)" fill="#8C1C2E"/>
<path d="m2490 4430-45-863a95 95 0 0 1 111-98l859 151-116-320a65 65 0 0 1 20-73l941-762-212-99a65 65 0 0 1-34-79l186-572-542 115a65 65 0 0 1-73-38l-105-247-423 454a65 65 0 0 1-111-57l204-1052-327 189a65 65 0 0 1-91-27l-332-652-332 652a65 65 0 0 1-91 27l-327-189 204 1052a65 65 0 0 1-111 57l-423-454-105 247a65 65 0 0 1-73 38l-542-115 186 572a65 65 0 0 1-34 79l-212 99 941 762a65 65 0 0 1 20 73l-116 320 859-151a95 95 0 0 1 111 98l-45 863z" transform="translate(1460.72,81.50) scale(0.04429) translate(-540,-400)" fill="#8C1C2E"/>
</svg>
